<svg width="50" height="36" xmlns="http://www.w3.org/2000/svg" data-name="Layer 1">
 <title>chatbot</title>

 <g>
  <title>Layer 1</title>
  <path stroke="null" style="vector-effect: non-scaling-stroke;" id="svg_1" d="m21.93882,8.40272l0,-1.63164a5.49902,4.14671 0 0 1 -0.76322,-0.26762a4.64802,3.50499 0 0 1 -1.92714,-4.34527a4.72816,3.56543 0 0 1 1.00745,-1.13668a4.65947,3.51363 0 0 1 1.49592,-0.75683a4.57933,3.4532 0 0 1 1.77831,-0.26475a4.63276,3.49348 0 0 1 4.28168,2.15825a4.63276,3.49348 0 0 1 0,2.66759a4.60986,3.47622 0 0 1 -1.00745,1.1338l-0.0229,0.01727a4.86173,3.66614 0 0 1 -0.9006,0.52661a4.29694,3.24025 0 0 1 -0.76322,0.26762l0,1.63164l10.86828,0a5.90352,4.45175 0 0 1 5.88444,4.44023l0,0.65898l2.01491,0a3.02618,2.28199 0 0 1 3.01473,2.27623l0,5.28627a3.02618,2.28199 0 0 1 -3.01473,2.27623l-2.00346,0l0,0.59568a5.90734,4.45462 0 0 1 -5.89589,4.44023l-14.90954,0l-8.93733,5.78698a0.98456,0.74244 0 0 1 -1.39288,-0.08345a1.00364,0.75683 0 0 1 -0.24041,-0.53237l0.47701,-5.17979l-0.08014,0a5.89589,4.44599 0 0 1 -5.88063,-4.4316l0,-0.59568l-2.00346,0a3.02618,2.28199 0 0 1 -3.01854,-2.27623l0,-5.28627a3.02618,2.28199 0 0 1 3.01473,-2.27623l2.00727,0l0,-0.66186a5.89589,4.44599 0 0 1 5.88063,-4.43736l11.03619,0zm9.63568,5.21433a3.57188,2.69349 0 1 1 -3.57188,2.69349a3.57188,2.69349 0 0 1 3.57188,-2.69349zm-16.249,0a3.57188,2.69349 0 1 1 -3.57188,2.69349a3.57188,2.69349 0 0 1 3.57188,-2.69349zm2.43468,9.02435a0.87007,0.65611 0 0 1 -0.14501,-0.10935a0.83191,0.62733 0 0 1 -0.19844,-0.39136a0.84336,0.63596 0 0 1 0.17554,-0.4a0.91587,0.69064 0 0 1 0.14883,-0.11223a1.22879,0.92661 0 0 1 1.48065,-0.02302a8.53282,6.43446 0 0 0 2.14847,0.93236a5.67074,4.27621 0 0 0 2.08741,0.28777a6.17447,4.65606 0 0 0 2.11031,-0.31654a9.68911,7.30639 0 0 0 2.19426,-0.92661a1.23642,0.93236 0 0 1 1.48447,0.0518a1.14483,0.8633 0 0 1 0.1412,0.11798a0.84718,0.63884 0 0 1 0.16028,0.40287a0.88915,0.6705 0 0 1 -0.22133,0.38848a0.87389,0.65898 0 0 1 -0.16409,0.10935a11.67348,8.80277 0 0 1 -2.79721,1.15107a8.50229,6.41143 0 0 1 -2.87353,0.41151a8.09779,6.1064 0 0 1 -2.88498,-0.36834a10.60116,7.99415 0 0 1 -2.82774,-1.19711l0,0l-0.01908,-0.00863zm18.22193,-12.74229l-25.07948,0a3.91533,2.95248 0 0 0 -3.90007,2.94385l0,11.09339a3.91533,2.95248 0 0 0 3.90007,2.94385l1.20971,0a0.996,0.75107 0 0 1 0.91968,0.79711l-0.38161,4.19563l7.36509,-4.7798a0.97692,0.73668 0 0 1 0.69835,-0.21582l15.26444,0a3.91533,2.95248 0 0 0 3.90007,-2.94385l0,-11.09339a3.9077,2.94673 0 0 0 -3.89625,-2.94097z"/>
 </g>
</svg>