<svg width="50" height="36" xmlns="http://www.w3.org/2000/svg" xml:space="preserve" enable-background="new 0 0 122.879 119.799" version="1.1">

 <g>
  <title>Layer 1</title>
  <g stroke="null" id="svg_1">
   <path stroke="null" id="svg_2" d="m24.07513,0.5222l0.00478,0l0,0.00209c4.12324,0.00119 7.85683,1.67031 10.55864,4.36738c2.69733,2.69319 4.36826,6.41612 4.37095,10.52793l0.00209,0l0,0.00984l0,0.01193l-0.00209,0c-0.00149,1.65719 -0.27401,3.25205 -0.7751,4.73925c-0.08396,0.24961 -0.17181,0.48937 -0.26205,0.7184l0,0.00209c-0.43207,1.09147 -0.99054,2.1233 -1.65748,3.07372l8.6899,7.79508l0.00538,0.00477l0.04691,0.04354l0.00329,0.00328c0.49064,0.46611 0.75777,1.09028 0.79154,1.72369c0.03287,0.62625 -0.16225,1.26682 -0.59134,1.78065l-0.00329,0.00477l-0.05229,0.06054l-0.01046,0.01044l-0.04363,0.04771l-0.00478,0.00626c-0.46763,0.48967 -1.09184,0.75568 -1.7271,0.78908c-0.6266,0.0331 -1.26903,-0.16104 -1.78418,-0.58987l-0.00448,-0.00328l-0.06096,-0.05219l-0.00867,-0.00716l-8.88801,-7.97251c-0.26295,0.18489 -0.53128,0.36054 -0.80289,0.52635c-0.36843,0.22515 -0.75001,0.43719 -1.13935,0.63073c-2.00171,0.99664 -4.26367,1.55729 -6.65503,1.55729l0,0.00209l-0.00478,0l0,-0.00209c-4.12324,-0.00119 -7.85742,-1.67031 -10.55924,-4.36738c-2.69823,-2.69319 -4.36826,-6.41672 -4.37095,-10.52733l-0.00209,0l0,-0.00984l0,-0.00477l0.00209,0c0.0012,-4.11509 1.67362,-7.8419 4.37603,-10.53837c2.69852,-2.6917 6.42883,-4.35933 10.54878,-4.36201l0,-0.00209l0.00986,0l0,0zm0.00478,3.343l0,0.00209l-0.00478,0l-0.00986,0l0,-0.00209c-3.19305,0.00209 -6.08729,1.29724 -8.18253,3.38744c-2.09493,2.0902 -3.39385,4.9817 -3.39474,8.17232l0.00209,0l0,0.00477l0,0.00984l-0.00209,0c0.00209,3.18674 1.29891,6.07377 3.39415,8.16546c2.09434,2.09109 4.99157,3.38744 8.1882,3.38804l0,-0.00209l0.00478,0l0.00986,0l0,0.00209c3.19305,-0.00209 6.0861,-1.29664 8.18193,-3.38744c2.09493,-2.0902 3.39385,-4.98081 3.39445,-8.17113l-0.00179,0l0,-0.00477l0,-0.00984l0.00179,0c-0.00179,-3.18674 -1.29981,-6.07526 -3.39385,-8.16635c-2.09434,-2.09109 -4.99067,-3.38744 -8.18761,-3.38833l0,0z"/>
  </g>
 </g>
</svg>